<?xml version="1.0" encoding="UTF-8"?>
<svg id="Layer_1" xmlns="http://www.w3.org/2000/svg" xmlns:xlink="http://www.w3.org/1999/xlink" viewBox="0 0 32 32">
  <defs>
    <style>
      .cls-1 {
        fill: #ebebeb;
      }

      .cls-2 {
        fill: #202c35;
      }

      .cls-3 {
        opacity: .94;
      }

      .cls-3, .cls-4 {
        fill: #fff;
      }

      .cls-5 {
        fill: url(#linear-gradient-2);
      }

      .cls-5, .cls-6 {
        opacity: .5;
      }

      .cls-6 {
        fill: url(#linear-gradient);
      }

      .cls-7 {
        fill: #49bde5;
      }

      .cls-8 {
        fill: #125c9d;
      }
    </style>
    <linearGradient id="linear-gradient" x1="16.94" y1="13.43" x2="17.05" y2="13.33" gradientUnits="userSpaceOnUse">
      <stop offset="0" stop-color="#126ab6" stop-opacity="0"/>
      <stop offset=".07" stop-color="#0e5da2" stop-opacity=".22"/>
      <stop offset=".19" stop-color="#074984" stop-opacity=".56"/>
      <stop offset=".31" stop-color="#033b6e" stop-opacity=".8"/>
      <stop offset=".42" stop-color="#003261" stop-opacity=".95"/>
      <stop offset=".52" stop-color="#00305d"/>
      <stop offset=".62" stop-color="#003769" stop-opacity=".85"/>
      <stop offset=".81" stop-color="#014a8b" stop-opacity=".45"/>
      <stop offset="1" stop-color="#0361b2" stop-opacity="0"/>
    </linearGradient>
    <linearGradient id="linear-gradient-2" x1="17.73" y1="12.67" x2="17.99" y2="12.42" xlink:href="#linear-gradient"/>
  </defs>
  <rect class="cls-2" x="0" y="0" width="32" height="32" rx="16" ry="16"/>
  <g>
    <path class="cls-3" d="M16.16,14.24s0,.01-.02.02c-.86-1.06-1.85-2.04-3-2.79-1.75.37-3.34,1-4.62,1.85-.66.44-1.2.91-1.63,1.41.02-.01.03-.02.05-.03.9-.47,2.05-.41,3.02-.26,1.01.15,1.99.5,2.91.94.51.24,1,.51,1.48.81,0,0,0,0,0,0,0,0,0,0,0,0,.01-.02.03-.03.04-.05,0,0,.02-.02.02-.03.02-.02.04-.04.05-.06.01-.01.02-.02.03-.04.02-.02.04-.04.06-.06.04-.05.08-.09.12-.13,0,0,0,0,.01-.01.01-.01.02-.02.03-.04,0,0,.02-.02.02-.03,0,0,0,0,0,0,.02-.03.05-.05.07-.08.01-.01.02-.02.03-.03.03-.04.07-.07.1-.11.02-.03.05-.05.07-.08,0,0,0,0,0,0,0,0,.01-.01.02-.02,0,0,.01-.01.02-.02.03-.03.05-.06.08-.09.02-.02.04-.04.06-.06.02-.02.03-.03.05-.05.01-.02.03-.03.04-.04.02-.02.03-.03.05-.05.02-.02.03-.04.05-.05.03-.03.05-.06.08-.09t0,0h0s.04-.04.06-.06c.18-.19.39-.41.61-.65,0,0,0,0,0,0Z"/>
    <path class="cls-3" d="M23.76,20.98c-.29.19-.6.38-.92.54-.21-.06-.42-.13-.63-.2-1.48-.55-2.97-1.46-4.21-2.44-.14-.11-1.09-.93-1.68-1.35-.03-.02-.05-.04-.08-.06h0c-.06-.04-.11-.08-.15-.11h0s-.19-.14-.19-.14l.88-.68.81-.6c.95,1.01,2.04,1.96,3.22,2.71.86.55,1.9,1.18,2.93,1.35.51.08,1.02,0,1.48-.22-.4.42-.88.83-1.44,1.2Z"/>
    <path class="cls-4" d="M5.25,18.33s.01.06.02.09c0-.03-.01-.06-.02-.09Z"/>
    <path class="cls-4" d="M5.28,18.42c.02.07.03.13.06.2,0,0,0,0,0,0-.02-.07-.04-.14-.06-.21Z"/>
    <path class="cls-4" d="M28.68,17.78s0,.02,0,.04t0,0h0s-.03.08-.04.12c-.08.23-.18.46-.29.68,0,.02-.02.04-.03.05-.79,1.52-2.56,3.04-4.35,3.01-.07,0-.14,0-.21,0,.11-.07.22-.14.33-.21,1.81-1.21,2.86-2.71,3.01-4.29.03-.28.04-.64-.03-1.05-.04-.21-.1-.43-.2-.66-.05-.13-.43-.99-1.33-1.54-.04-.03-.11-.07-.19-.11-.13-.06-.25-.12-.38-.17-.16-.06-.33-.1-.5-.14-1.29-.25-2.78.19-4.12.81,0,0,0,0,0,0-.09.04-.18.09-.27.13-.33.16-.65.34-.96.51-.05.03-.09.05-.14.08-.06.04-.12.07-.18.11-.03.02-.06.03-.08.05-.42.25-.79.5-1.11.73,0,0-1.1.8-1.69,1.29-.01.01-.03.02-.04.04-.02.02-.04.04-.06.05-.01,0-.02.02-.03.03,0,0,0,0,0,0-.01,0-.02.02-.03.03,0,0-.04.03-.1.09-.02.02-.05.04-.08.07-.02.02-.05.04-.08.07-.01.01-.03.03-.04.04-.02.02-.05.04-.07.06-.22.19-.42.39-.62.57-.02.02-.04.04-.07.06-.03.03-.05.05-.08.08-.02.02-.04.04-.06.06-.01.01-.03.03-.04.04-.04.04-.08.08-.11.11,0,0,0,0-.01.01,0,0,0,0-.01.01-.02.02-.03.03-.03.03-.06.06-.12.12-.18.18h0s-.03.04-.05.06c-.05.05-.11.11-.17.18,0,0-.01.01-.02.02-.02.02-.03.03-.05.05-.01.01-.02.02-.03.03-.02.02-.05.05-.07.07-.01.01-.02.02-.04.04,0,0,0,0,0,0-1.2,1.24-2.07,2.12-3.77,2.42-.18.03-.36.06-.53.07-.1,0-.2.02-.3.02-.54.02-1-.03-1.33-.09-.2-.04-.36-.08-.45-.1-2.08-.57-3.14-2.15-3.33-2.43-.29-.44-1.06-1.74-.94-3.55.15-2.47,1.85-3.92,2.1-4.13.41-.33.86-.61,1.34-.82,1.72-.76,3.81-.66,5.5.13.14.07.28.14.42.21-1.58.39-3.02,1-4.21,1.79-2.04,1.36-3.11,3.09-3.02,4.88,0,0,0,0,0,0,0,.04,0,.09,0,.13,0,.12.02.25.05.38,0,.04,0,.08,0,.12.1,2,1.6,2.64,1.6,2.64,0,0,0,0,0,0,.09.04.18.07.29.11.02,0,.03.01.05.02s.03.01.05.02c.13.04.28.08.43.12.02,0,.04,0,.06.01.02,0,.04,0,.06.01,0,0,0,0,.01,0,.04,0,.08.01.11.02.04,0,.08.01.12.02.06,0,.12.02.19.02.01,0,.03,0,.04,0,.01,0,.03,0,.04,0,.02,0,.04,0,.06,0,.02,0,.04,0,.06,0,.01,0,.03,0,.04,0,.02,0,.05,0,.07,0,.02,0,.03,0,.05,0,.02,0,.05,0,.07,0,.1,0,.2,0,.3-.01.03,0,.05,0,.08,0,.03,0,.05,0,.08,0h0s.05,0,.08,0c.02,0,.05,0,.07-.01.03,0,.06,0,.08-.01.03,0,.05,0,.08-.01.01,0,.02,0,.04,0,.04,0,.07-.02.11-.02,0,0,.02,0,.03,0,0,0,0,0,.01,0,0,0,.02,0,.03,0,.01,0,.02,0,.03,0,.01,0,.02,0,.03,0,0,0,.01,0,.02,0,0,0,.01,0,.02,0,.02,0,.04-.01.06-.02.02,0,.04-.01.06-.02h0c.08-.03.17-.06.25-.09.02,0,.05-.02.07-.03.02-.01.05-.02.07-.03,0,0,.02,0,.03-.01.02,0,.04-.02.06-.03,0,0,.02,0,.02-.01.01,0,.02-.01.03-.02h0s.02-.01.03-.02c0,0,.02,0,.03-.01h0s.02,0,.03-.01c.04-.02.08-.05.12-.07.03-.02.07-.04.1-.06.02-.01.04-.02.05-.03h0s.04-.02.05-.04c.02-.01.03-.02.05-.03h0s.03-.02.05-.04c.06-.04.12-.09.18-.13.03-.02.06-.05.09-.07.01-.01.03-.02.04-.03.01-.01.03-.02.04-.03.01-.01.03-.02.04-.03.03-.02.05-.04.08-.07.14-.12.28-.25.41-.39.02-.02.03-.03.05-.05,0,0,.02-.02.02-.02,0,0,.02-.02.02-.02,0,0,.02-.02.03-.03,0,0,.02-.02.03-.03h0s.02-.02.03-.03c0,0,.02-.02.03-.03.01-.01.03-.03.04-.04h0s.03-.03.04-.04c.02-.02.04-.04.06-.07.02-.02.04-.04.06-.07,0,0,.02-.02.03-.03.02-.02.03-.04.05-.06,0,0,.02-.02.02-.03.04-.05.08-.1.12-.14.02-.02.04-.05.06-.07,0,0,0,0,0,0,.02-.02.04-.05.06-.07.01-.02.03-.03.04-.05.01-.02.03-.03.04-.05.02-.02.04-.05.06-.07.06-.08.13-.15.19-.23.01-.01.02-.03.04-.04.01-.01.02-.03.04-.04.02-.02.03-.04.05-.06.07-.09.14-.18.22-.26.04-.04.07-.09.11-.13.03-.03.05-.07.08-.1.06-.07.11-.13.17-.2h0s.06-.07.09-.1c0,0,.01-.01.02-.02,0,0,0,0,0-.01,0,0,0-.01.01-.02,0,0,0,0,0-.01,0,0,0,0,0-.01.01-.02.03-.04.05-.05.03-.04.06-.07.09-.11,0,0,0,0,0,0,.03-.03.06-.07.09-.1.02-.02.03-.04.05-.06.03-.04.06-.07.09-.11.02-.02.03-.04.05-.06.05-.06.1-.11.15-.17.07-.08.15-.17.22-.25.04-.04.08-.08.11-.13h0s.04-.04.06-.06c.02-.02.04-.04.06-.06s.04-.04.06-.06c.04-.04.08-.08.12-.13.02-.02.04-.04.06-.06,0,0,.02-.02.02-.02,0,0,.02-.02.02-.02.03-.03.06-.07.1-.1.02-.02.03-.03.05-.05.07-.07.13-.13.2-.2.04-.04.08-.07.11-.11.03-.03.06-.06.09-.09.03-.03.05-.05.08-.08.02-.01.03-.03.05-.04.02-.02.04-.04.07-.06.02-.02.04-.04.07-.06,0,0,0,0,.01-.01.05-.05.1-.09.16-.14.03-.03.06-.05.08-.07.01-.01.03-.03.04-.04.03-.03.06-.05.09-.07.01-.01.03-.02.04-.04h0s0,0,0,0c0,0,0,0,0,0,.01-.01.03-.02.04-.04.01-.01.03-.02.04-.04.09-.08.19-.16.28-.23.02-.02.04-.03.06-.05.04-.03.08-.06.12-.09,0,0,.02-.01.02-.02.01,0,.02-.02.04-.03,0,0,0,0,.01,0,0,0,.01-.01.02-.02.01,0,.02-.02.03-.02.01,0,.02-.02.03-.03,0,0,.02-.01.03-.02.02-.01.04-.03.06-.05,0,0,.02-.02.03-.02,0,0,0,0,0,0,.01-.01.03-.02.04-.03.02-.02.05-.04.07-.06.01,0,.02-.02.04-.03.01-.01.03-.02.04-.03.03-.02.05-.04.08-.06.01-.01.03-.02.04-.03.01-.01.03-.02.04-.03.02-.01.03-.03.05-.04.02-.01.04-.03.05-.04.06-.05.13-.1.2-.15,0,0,.02-.01.03-.02,0,0,.01,0,.02-.01,0,0,0,0,.01,0,.01,0,.02-.02.04-.03.02-.01.03-.02.05-.03.03-.02.06-.04.09-.06,0,0,0,0,.01,0,.05-.04.1-.07.15-.11.03-.02.05-.04.08-.05.03-.02.05-.04.08-.05.02-.01.04-.02.05-.04.06-.04.13-.09.19-.13.03-.02.07-.04.1-.06.03-.02.07-.04.1-.06.06-.04.13-.08.2-.12.02-.01.04-.02.05-.03,0,0,0,0,.01,0,0,0,.02-.01.03-.02.01,0,.03-.02.04-.02,0,0,.01,0,.02-.01.01,0,.03-.02.04-.03,0,0,0,0,0,0,0,0,.02,0,.02-.01,0,0,.01,0,.02,0,0,0,.02-.01.03-.02.06-.03.12-.07.17-.1.03-.02.07-.04.1-.06h.02s.07-.05.11-.07c.01,0,.02-.01.03-.02.03-.02.07-.04.1-.05h0c.07-.04.15-.08.22-.11.06-.03.12-.06.18-.09.02,0,.04-.02.06-.03.04-.02.08-.04.12-.06.05-.02.1-.05.15-.07.1-.05.21-.09.31-.13.05-.02.1-.04.16-.06.04-.02.08-.03.13-.05h0s.08-.03.13-.05h0s.08-.03.12-.04c.03-.01.06-.02.09-.03.01,0,.03,0,.04-.01.02,0,.03-.01.05-.02.02,0,.03-.01.05-.02.01,0,.02,0,.03,0,0,0,.01,0,.02,0,.03,0,.05-.02.08-.02.02,0,.04-.01.06-.02.02,0,.04-.01.06-.02.01,0,.02,0,.03,0,.03,0,.06-.02.09-.03.03,0,.05-.01.08-.02.05-.01.1-.03.15-.04.03,0,.05-.01.08-.02.09-.02.18-.04.27-.05.04,0,.08-.01.12-.02.02,0,.04,0,.06,0,.01,0,.03,0,.04,0,.02,0,.03,0,.05,0,.02,0,.04,0,.07,0,.02,0,.04,0,.07,0,.01,0,.03,0,.04,0,.02,0,.04,0,.06,0,.03,0,.06,0,.09,0,0,0,.01,0,.02,0,.03,0,.07,0,.1,0,0,0,0,0,0,0,.01,0,.02,0,.04,0,.01,0,.02,0,.03,0,.01,0,.02,0,.04,0,.02,0,.03,0,.05,0,.02,0,.04,0,.06,0,.02,0,.03,0,.05,0,.03,0,.06,0,.09,0,.04,0,.07,0,.11,0,.02,0,.03,0,.05,0,.02,0,.03,0,.05,0,0,0,.01,0,.02,0,.04,0,.08,0,.12,0,.04,0,.07,0,.11,0,.01,0,.02,0,.04,0,.02,0,.05,0,.07,0,.01,0,.02,0,.04,0,.04,0,.08,0,.12.02.03,0,.05,0,.08.01.05,0,.1.02.15.03.03,0,.05.01.08.02.07.01.13.03.2.05.03,0,.07.02.1.03.03,0,.07.02.1.03.02,0,.04.01.06.02.02,0,.05.01.07.02.02,0,.05.02.07.02.35.13.67.28.93.44.06.03.11.07.16.1.01,0,.02.01.03.02.02.01.04.03.06.04.32.22.57.44.74.61.19.19.28.32.29.32h0s1.79,2.55,1.31,4.5Z"/>
    <path class="cls-1" d="M5.54,19.13c.03.06.06.12.09.17-.03-.05-.06-.11-.09-.17Z"/>
    <path class="cls-1" d="M5.65,19.34s.05.08.07.12c-.03-.04-.05-.08-.07-.12Z"/>
    <path class="cls-1" d="M5.81,19.57s.05.07.08.1c-.03-.03-.05-.07-.08-.1Z"/>
    <path class="cls-1" d="M5.89,19.67s.05.07.08.1c-.03-.03-.05-.06-.08-.1Z"/>
    <path class="cls-1" d="M9.56,21.25s.02,0,.03,0c0,0-.02,0-.03,0-.03,0-.07.02-.11.02.04,0,.07-.02.11-.02Z"/>
    <path class="cls-1" d="M9.62,21.24s.02,0,.03,0c-.01,0-.02,0-.03,0,0,0-.02,0-.03,0,0,0,.02,0,.03,0Z"/>
    <path class="cls-1" d="M9.68,21.22s.01,0,.02,0c0,0-.01,0-.02,0-.01,0-.02,0-.03,0,.01,0,.02,0,.03,0Z"/>
    <path class="cls-1" d="M10.23,21.02s.02,0,.03-.01c0,0-.02,0-.03.01-.05.02-.1.04-.14.06.05-.02.1-.04.14-.06Z"/>
    <path class="cls-1" d="M10.34,20.97s.02-.01.03-.02c-.01,0-.02.01-.03.02,0,0-.02,0-.02.01,0,0,.02,0,.02-.01Z"/>
    <path class="cls-1" d="M10.4,20.94s.02,0,.03-.01c0,0-.02,0-.03.01,0,0-.02.01-.03.02.01,0,.02-.01.03-.02Z"/>
    <path class="cls-1" d="M10.67,20.78s.04-.02.05-.03c-.02.01-.04.02-.05.03-.03.02-.06.04-.1.06-.04.02-.08.05-.12.07,0,0-.02,0-.03.01,0,0,.02,0,.03-.01.04-.02.08-.05.12-.07.03-.02.07-.04.1-.06Z"/>
    <path class="cls-1" d="M10.78,20.71s.03-.02.05-.03c-.02.01-.03.02-.05.03-.02.01-.04.02-.05.03.02-.01.04-.02.05-.04Z"/>
    <path class="cls-1" d="M11.15,20.44s.05-.04.08-.06c-.03.02-.05.04-.08.06-.03.02-.06.05-.09.07-.06.04-.12.09-.18.13.06-.04.12-.09.18-.13.03-.02.06-.05.09-.07Z"/>
    <path class="cls-1" d="M11.84,19.79s.03-.04.05-.05c-.02.02-.03.04-.05.05-.02.02-.03.03-.05.05.02-.02.03-.03.05-.05Z"/>
    <path class="cls-1" d="M11.95,19.68s.03-.03.04-.04c-.01.01-.03.03-.04.04-.02.02-.03.04-.05.05.02-.02.03-.04.05-.05Z"/>
    <path class="cls-1" d="M12.02,19.6s.04-.04.06-.07c-.02.02-.04.04-.06.07-.01.01-.03.03-.04.04.01-.01.03-.03.04-.04Z"/>
    <path class="cls-1" d="M12.37,19.21s.08-.1.13-.15c-.04.05-.08.1-.13.15Z"/>
    <path class="cls-1" d="M12.58,18.96s.04-.05.06-.07c-.02.03-.04.05-.06.07-.01.02-.03.03-.04.05.01-.02.03-.03.04-.05Z"/>
    <path class="cls-1" d="M13.17,18.25s.07-.09.11-.13c-.04.04-.07.09-.11.13-.07.09-.15.18-.22.26-.02.02-.03.04-.05.06-.01.01-.02.03-.04.04.01-.01.02-.03.04-.04.02-.02.03-.04.05-.06.07-.09.14-.18.22-.26Z"/>
    <path class="cls-1" d="M13.36,18.02c.06-.07.11-.13.17-.2-.06.07-.11.14-.17.2Z"/>
    <path class="cls-1" d="M13.61,17.71s.01-.01.02-.02c0,0,0,.01-.01.02-.03.03-.06.07-.09.1.03-.03.06-.07.09-.1Z"/>
    <path class="cls-1" d="M13.67,17.64s.03-.04.05-.05c-.02.02-.03.04-.05.05,0,0,0,0,0,.01,0,0,0,0,0-.01Z"/>
    <path class="cls-1" d="M14.09,17.15c.05-.06.1-.11.15-.17-.05.06-.1.11-.15.17Z"/>
    <path class="cls-1" d="M14.69,16.48s.04-.04.06-.06c-.02.02-.04.04-.06.06-.04.04-.08.08-.12.13.04-.04.08-.08.12-.13Z"/>
    <path class="cls-1" d="M14.93,16.23s.03-.03.05-.05c-.02.02-.03.03-.05.05-.02.02-.04.04-.06.06.02-.02.04-.04.06-.06Z"/>
    <path class="cls-1" d="M16.05,15.16s.03-.03.04-.04c-.01.01-.03.02-.04.04-.03.02-.06.05-.09.07-.05.05-.11.09-.16.14.05-.05.1-.09.16-.14.03-.03.06-.05.08-.07Z"/>
    <path class="cls-1" d="M16.22,15.01s0,0,0,0c0,0,0,0,0,0-.01.01-.03.02-.04.04.01-.01.03-.02.04-.04Z"/>
    <path class="cls-1" d="M16.31,14.94c.09-.08.19-.16.28-.23-.1.08-.19.16-.28.23-.01.01-.03.02-.04.04.01-.01.03-.02.04-.04Z"/>
    <path class="cls-1" d="M16.77,14.56s.02-.01.02-.02c0,0-.02.01-.02.02-.04.03-.08.06-.12.09.04-.03.08-.06.12-.09Z"/>
    <path class="cls-1" d="M16.84,14.51s.01-.01.02-.02c0,0-.01.01-.02.02,0,0,0,0-.01,0,0,0,0,0,.01,0Z"/>
    <path class="cls-1" d="M16.92,14.44s.02-.01.03-.02c0,0-.02.01-.03.02-.02.02-.04.03-.06.05.02-.02.04-.03.06-.05Z"/>
    <path class="cls-1" d="M17.04,14.35s0,0,0,0c-.01.01-.03.02-.04.03,0,0,.02-.02.03-.02Z"/>
    <path class="cls-1" d="M17.2,14.23s.03-.02.04-.03c-.03.02-.05.04-.08.06.01,0,.02-.02.04-.03Z"/>
    <path class="cls-1" d="M17.4,14.07s.07-.05.11-.08c-.04.03-.07.05-.11.08Z"/>
    <path class="cls-1" d="M17.76,13.8s.02-.02.04-.03c-.02.01-.03.02-.05.03,0,0,0,0,.01,0Z"/>
    <path class="cls-1" d="M18.02,13.62c.08-.05.15-.11.23-.16-.11.07-.21.14-.31.21.03-.02.05-.04.08-.05Z"/>
    <path class="cls-1" d="M18.5,13.29s.07-.04.1-.06c-.03.02-.07.04-.1.06-.07.04-.13.09-.19.13.06-.04.13-.09.19-.13Z"/>
    <path class="cls-1" d="M18.95,13.01s0,0,.01,0c-.02.01-.04.03-.07.04-.07.04-.13.08-.2.12.06-.04.13-.08.2-.12.02-.01.04-.02.05-.03Z"/>
    <path class="cls-1" d="M19.7,12.58s-.07.03-.1.05c.03-.02.07-.04.1-.05Z"/>
    <path class="cls-1" d="M19.57,12.65s.02-.01.03-.02c-.01,0-.02.01-.03.02-.04.02-.07.04-.11.06,0,0-.01,0-.02.01h.02s.07-.05.11-.07Z"/>
    <path class="cls-1" d="M19.92,12.47c.06-.03.12-.06.18-.09-.06.03-.12.06-.18.09-.07.04-.15.07-.22.11.07-.04.15-.08.22-.11Z"/>
    <path class="cls-1" d="M20.89,12.03c.08-.03.17-.06.25-.1-.09.03-.17.06-.25.1-.21.08-.42.17-.62.27.05-.02.1-.05.15-.07.1-.05.21-.09.31-.13.05-.02.1-.04.16-.06Z"/>
    <path class="cls-1" d="M21.53,11.8s.01,0,.02,0c-.02,0-.03.01-.05.02.01,0,.02,0,.03,0Z"/>
    <path class="cls-1" d="M21.96,11.68c.08-.02.15-.04.23-.05-.1.02-.21.05-.31.08.03,0,.05-.01.08-.02Z"/>
    <path class="cls-1" d="M24.75,11.62c.07.02.14.04.2.06-.07-.02-.13-.04-.2-.06-.07-.02-.13-.03-.2-.05-.1-.02-.2-.04-.31-.05.03,0,.05,0,.08.01.05,0,.1.02.15.03.03,0,.05.01.08.02.07.01.13.03.2.05Z"/>
    <path class="cls-1" d="M25.15,11.75c.94.33,1.59.87,1.93,1.21-.34-.34-.99-.88-1.93-1.21-.05-.02-.09-.03-.14-.05.05.01.09.03.14.05Z"/>
    <g>
      <path class="cls-8" d="M27.99,12.78s.02.03.03.04c0-.01-.02-.03-.03-.04Z"/>
      <path class="cls-8" d="M27.59,12.25s-.03-.04-.05-.06t0,0s0,0,0,0c.02.02.03.04.05.06Z"/>
      <path class="cls-8" d="M28.09,12.94s.02.03.02.04c0-.01-.02-.03-.02-.04Z"/>
      <path class="cls-8" d="M28.18,13.08s.02.03.02.04c0-.01-.02-.03-.02-.04Z"/>
      <path class="cls-8" d="M27.81,12.53s.03.04.04.06c-.01-.02-.03-.04-.04-.06Z"/>
      <path class="cls-8" d="M27.62,12.28s.03.04.05.06c-.02-.02-.03-.04-.05-.06Z"/>
      <path class="cls-4" d="M27.37,13.28s-.75-1.01-2.22-1.53c-.13-.05-.27-.09-.4-.12-.07-.02-.13-.03-.2-.05-.1-.02-.2-.04-.31-.05-.6-.08-1.2-.06-1.79.05-.44.08-.88.2-1.31.36-.09.03-.17.06-.25.1-.21.08-.42.17-.62.27-.04.02-.08.04-.12.06-.08.04-.16.08-.24.12-.07.04-.15.07-.22.11-.04.02-.09.05-.13.07-.04.02-.07.04-.11.06,0,0-.01,0-.02.01-.19.1-.37.21-.54.32-.07.04-.13.08-.2.12-.07.04-.14.09-.2.13s-.13.09-.19.13c-.02.01-.03.02-.05.03-.02.01-.04.03-.06.04-.05.04-.1.07-.15.1-.02.01-.04.03-.05.04,0,0,0,0,0,0-.02.02-.04.03-.07.05-.02.01-.04.03-.06.04-.02.01-.03.02-.05.03-.01,0-.02.02-.04.03-.02.01-.04.03-.06.04-.01,0-.02.02-.04.03-.02.02-.04.03-.07.05,0,0-.01,0-.02.01-.27.2-.5.37-.68.52-.03.02-.06.04-.08.07,0,0-.02.01-.02.02-.02.01-.03.03-.05.04-.07.05-.13.1-.19.15-.03.02-.06.05-.09.07-.06.05-.12.1-.18.15-.03.02-.05.04-.08.07,0,0,0,0-.01,0,0,0,0,0,0,0-.06.05-.12.1-.17.15-.03.02-.06.05-.09.07-.06.05-.12.11-.18.16-.09.08-.17.16-.25.23-.03.03-.06.06-.09.09-.04.04-.08.07-.11.11-.14.13-.27.27-.4.4-.08.08-.16.17-.24.25-.16.17-.31.34-.45.5-.07.07-.13.15-.2.22-.13.15-.25.29-.37.43,0,0-.01.02-.02.02,0,0-.01.01-.01.02h0s-.02.02-.02.03c-.11.14-.23.27-.34.41-.04.04-.07.09-.11.13-.07.09-.15.18-.22.26-.02.02-.03.04-.05.06-.02.03-.05.06-.07.09-.08.1-.17.2-.25.3-.03.03-.06.07-.09.1-.08.1-.17.2-.25.29-.03.04-.07.08-.1.11-.04.05-.08.09-.12.13-.03.03-.05.06-.08.08-.03.04-.07.07-.1.11-.03.03-.06.07-.09.1-.2.2-.4.39-.6.55-.03.02-.06.05-.09.07-.06.05-.12.09-.18.13-.03.02-.07.05-.1.07-.04.02-.07.05-.11.07-.03.02-.06.04-.1.06-.04.02-.08.05-.12.07-.02,0-.03.02-.05.03-.02.01-.04.02-.06.03-.04.02-.08.04-.11.05-.13.06-.26.11-.39.15-.02,0-.04.01-.06.02-.02,0-.04.01-.06.02-.01,0-.03,0-.04.01-.02,0-.04.01-.06.02-.02,0-.04.01-.06.02-.05.01-.09.02-.14.03-.03,0-.05,0-.08.01-.03,0-.05,0-.08.01-.02,0-.05,0-.07.01-.03,0-.05,0-.08,0-.05,0-.11.01-.16.01-.91.06-1.66-.18-2.11-.36,0,0-1.51-.63-1.6-2.64,0-.04,0-.08,0-.12-.02-.13-.04-.26-.05-.38,0,.02-.02.05-.02.08-.31,1.38.68,3.87,3.83,3.88.14,0,.28,0,.41-.01.17-.02.35-.04.53-.07,1.7-.3,2.57-1.19,3.77-2.42,0,0,0,0,0,0h0s0,0,0,0c.01-.01.02-.02.03-.04.02-.02.04-.05.07-.07.01-.01.02-.02.03-.03.02-.02.03-.03.05-.05,0,0,.01-.01.02-.02.06-.07.12-.12.17-.18.02-.02.03-.03.05-.05h0c.06-.07.12-.13.18-.19,0,0,.01-.01.03-.03,0,0,0,0,.01-.01,0,0,0,0,.01-.01.03-.03.07-.07.11-.11.01-.01.03-.03.04-.04.02-.02.04-.04.06-.06.03-.03.06-.05.08-.08.02-.02.04-.04.07-.06.26-.25.51-.48.69-.64.01-.01.03-.03.04-.04.03-.03.05-.05.08-.07.03-.03.06-.05.08-.07.06-.06.1-.09.1-.09,0,0,.02-.02.03-.03,0,0,0,0,0,0,0,0,.02-.02.03-.03.02-.02.04-.03.06-.05.01-.01.03-.02.04-.04.2-.17.52-.43.93-.74.38-.28,1-.75,1.86-1.27.03-.02.06-.03.08-.05.06-.04.12-.07.18-.11.04-.03.09-.05.14-.08.33-.19.74-.41,1.23-.65,0,0,0,0,0,0,1.34-.63,2.83-1.06,4.12-.81,1.64.2,3.35,1.25,4.18,4.42.01-.04.03-.08.04-.12,0-.01,0-.02,0-.04.48-1.96-1.31-4.5-1.31-4.5Z"/>
      <path class="cls-8" d="M27.7,12.38s.03.04.05.06c-.02-.02-.03-.04-.05-.06Z"/>
      <path class="cls-8" d="M27.9,12.65s.02.03.04.05c-.01-.02-.02-.03-.04-.05Z"/>
    </g>
    <path class="cls-7" d="M15.07,15.42s-.02.02-.03.03c0,0,0,0,0,0,0,0,.01-.01.02-.03Z"/>
    <path class="cls-7" d="M8.74,20.94c-.14.01-.23.01-.24.01-.46,0-.86-.1-1.18-.22.01,0,.03.01.04.01.19.07.4.13.65.16.29.04.55.04.73.03Z"/>
    <path class="cls-7" d="M9.88,20.66s-.08.04-.12.05c-.05.02-.09.03-.13.05.08-.03.17-.06.25-.1Z"/>
    <path class="cls-7" d="M11.88,18.93c-.08.09-.17.17-.25.26.09-.09.18-.18.25-.26Z"/>
    <path class="cls-7" d="M14.69,15.83s-.07.08-.12.13c-.02.02-.04.04-.06.06-.01.01-.02.02-.03.04-.02.02-.04.04-.05.06,0,0-.02.02-.02.03-.14.15-.32.35-.57.64-.02.02-.04.04-.06.06-.08.08-.16.18-.25.28-.03.04-.07.08-.1.12-.02.03-.05.05-.07.08-.02.02-.04.05-.06.07-.01.02-.03.03-.04.05-.15.16-.28.31-.39.44-.16.18-.32.35-.47.51.32-.36.63-.7.9-1,.16-.18.31-.34.44-.49.16-.17.29-.33.4-.45.03-.03.06-.07.09-.1.06-.07.11-.12.15-.17.01-.02.03-.03.04-.04.09-.1.19-.21.28-.31Z"/>
    <path class="cls-7" d="M14.76,15.76s.03-.03.05-.05c-.01.01-.02.02-.03.03-.02.02-.04.04-.06.07.01-.02.03-.03.05-.05Z"/>
    <path class="cls-7" d="M15.09,15.4s.03-.03.05-.05c-.02.02-.03.04-.05.05Z"/>
    <path class="cls-7" d="M15.15,15.33s.05-.06.08-.09c-.03.03-.06.06-.08.09Z"/>
    <path class="cls-7" d="M15.38,15.08s.07-.08.11-.12c-.04.04-.08.08-.11.12Z"/>
    <path class="cls-7" d="M22.19,10.28s.01,0,.02,0c-.25.04-.53.1-.84.19-1,.29-1.82.75-2.5,1.24-.28.21-.52.4-.7.56-.01.01-.03.02-.04.04-.03.02-.05.05-.08.07-.02.02-.04.04-.06.05-.09.08-.18.17-.27.25-.03.03-.06.05-.08.08-.09.08-.18.17-.28.27,0,0-.02.02-.02.02-.05.05-.1.1-.15.14-.02.02-.04.04-.06.05-.03.03-.06.06-.09.09-.03.03-.07.07-.1.1-.11.11-.2.2-.25.26-.45.46-.88.93-1.2,1.27.26-.28.49-.52.65-.7.02-.02.03-.03.05-.05.04-.05.09-.09.13-.14,1.34-1.4,2.08-2.16,3.27-2.83.59-.33,1.42-.79,2.6-.96Z"/>
    <path class="cls-7" d="M26.66,11.37c-1-.74-2.08-1.02-2.69-1.12.39.05.81.15,1.26.32.58.22,1.06.51,1.44.8Z"/>
    <path class="cls-6" d="M17.05,13.33s-.07.07-.1.1c.03-.03.06-.07.1-.1Z"/>
    <path class="cls-5" d="M18,12.42c-.09.08-.18.17-.27.25.09-.08.17-.16.27-.25Z"/>
    <path class="cls-1" d="M28.67,17.82c.54-1.65.25-3.34-.4-4.57-.32-.61-.72-1.08-1.07-1.42,0,0,0,0,0,0,0,0,0,0,0,0-.01-.01-.03-.02-.04-.04-.1-.09-.21-.19-.33-.29-.02-.01-.04-.03-.05-.04s-.04-.03-.06-.04c-.02-.02-.04-.03-.06-.05-.37-.28-.85-.58-1.44-.8-.44-.17-.87-.27-1.26-.32,0,0,0,0-.01,0-.78-.1-1.4-.02-1.74.02,0,0-.01,0-.02,0-1.19.17-2.01.62-2.6.96-1.19.67-1.93,1.43-3.27,2.83-.04.05-.09.09-.13.14-.01.02-.03.03-.05.05-.17.18-.4.42-.65.7,0,0,0,0,0,0-.06.06-.12.13-.18.19-.01.01-.03.03-.04.04-.02.02-.03.03-.05.05-.02.02-.04.04-.06.06-.03.03-.05.06-.08.09,0,0-.01.01-.02.02,0,0-.01.01-.02.02,0,0,0,0,0,0-.03.03-.05.05-.07.08-.03.04-.07.07-.1.11-.01.01-.02.02-.03.03-.02.03-.05.05-.07.08,0,0,0,0,0,0,0,0-.02.02-.02.03-.01.01-.02.02-.03.04,0,0,0,0-.01.01-.09.1-.19.21-.28.31-.01.01-.02.03-.04.04-.04.04-.09.1-.15.17-.03.03-.06.06-.09.1-.11.13-.25.28-.4.45-.13.15-.28.31-.44.49-.27.3-.58.64-.9,1-.02.03-.05.05-.07.08,0,0,0,0,0,0,0,0,0,0,0,0,0,0-.02.02-.03.04-.02.02-.05.06-.09.1-.01.01-.02.02-.03.03-.06.06-.14.15-.23.24-.01.01-.03.03-.04.05-.07.08-.16.16-.25.26-.04.04-.08.08-.12.13-.02.02-.04.04-.06.06-.79.81-1.05,1.01-1.36,1.18-.07.04-.14.07-.21.1-.09.04-.17.07-.25.1-.02,0-.04.01-.06.02,0,0,0,0-.01,0-.21.07-.4.11-.54.13-.06,0-.14.02-.25.03,0,0,0,0-.01,0-.19.01-.44.01-.73-.03-.24-.04-.46-.1-.65-.16-.01,0-.03,0-.04-.01-.01,0-.03-.01-.04-.02-.02,0-.05-.02-.07-.03-.02,0-.04-.02-.06-.03-.08-.03-.15-.07-.21-.1-.01,0-.02-.01-.04-.02-.01,0-.02-.01-.03-.02-.26-.15-1.08-.67-1.48-1.73-.07-.2-.12-.39-.16-.57,0,.04,0,.08,0,.12.1,2,1.6,2.64,1.6,2.64.45.18,1.2.43,2.11.36.05,0,.11,0,.16-.01.03,0,.05,0,.08,0,.02,0,.05,0,.07-.01.03,0,.06,0,.08-.01.03,0,.05,0,.08-.01.05,0,.09-.02.14-.03.02,0,.04-.01.06-.02.02,0,.04-.01.06-.02.01,0,.03,0,.04-.01.02,0,.04-.01.06-.02.02,0,.04-.01.06-.02.13-.04.26-.09.39-.15.04-.02.08-.04.11-.05.02-.01.04-.02.06-.03.02,0,.03-.02.05-.03.04-.02.08-.05.12-.07.03-.02.07-.04.1-.06.04-.02.07-.05.11-.07.03-.02.07-.05.1-.07.06-.04.12-.09.18-.13.03-.02.06-.05.09-.07.2-.17.4-.35.6-.55.03-.03.06-.06.09-.1.03-.04.07-.07.1-.11.03-.03.05-.05.08-.08.04-.04.08-.09.12-.13.03-.04.07-.07.1-.11.08-.09.17-.19.25-.29.03-.03.06-.07.09-.1.08-.1.17-.2.25-.3.02-.03.05-.06.07-.09.02-.02.03-.04.05-.06.07-.09.14-.18.22-.26.04-.04.07-.09.11-.13.11-.13.22-.27.34-.41,0,0,.02-.02.02-.03.01-.01.02-.03.03-.04.12-.14.24-.29.37-.43.06-.07.13-.15.2-.22.15-.16.3-.33.45-.5.08-.08.16-.17.24-.25.13-.13.26-.27.4-.4.04-.04.08-.07.11-.11.03-.03.06-.06.09-.09.14-.13.28-.26.43-.4.03-.03.06-.05.09-.07.06-.05.11-.1.17-.15,0,0,0,0,0,0,.03-.02.06-.05.09-.07.15-.13.3-.25.46-.37.02-.02.05-.04.07-.06.03-.02.05-.04.08-.07.34-.27.81-.63,1.38-1.02.06-.04.13-.09.19-.13s.13-.09.2-.13c.06-.04.13-.08.2-.12.17-.11.36-.21.54-.32,0,0,.01,0,.02-.01.04-.02.07-.04.11-.06.04-.02.09-.05.13-.07.07-.04.15-.08.22-.11.08-.04.16-.08.24-.12.04-.02.08-.04.12-.06.2-.09.41-.18.62-.27.08-.03.17-.06.25-.1.43-.15.86-.28,1.31-.36.59-.11,1.19-.13,1.79-.05.1.01.2.03.31.05.07.01.14.03.2.05.14.03.27.07.4.12,1.47.52,2.22,1.53,2.22,1.53,0,0,1.79,2.55,1.31,4.5,0,.01,0,.03,0,.04Z"/>
  </g>
</svg>